<svg fill="none" xmlns="http://www.w3.org/2000/svg" viewBox="0 0 142 30"><path d="M14.9232 0C11.9717 0 9.08643 0.87523 6.63232 2.51501C4.17821 4.1548 2.26547 6.48548 1.13597 9.21234C0.00646603 11.9392 -0.289063 14.9398 0.286752 17.8346C0.862567 20.7294 2.28386 23.3885 4.37091 25.4755C6.45796 27.5625 9.11702 28.9838 12.0118 29.5597C14.9067 30.1355 17.9072 29.8399 20.6341 28.7104C23.3609 27.5809 25.6916 25.6682 27.3314 23.2141C28.9712 20.76 29.8464 17.8747 29.8464 14.9232C29.8464 10.9653 28.2742 7.16955 25.4755 4.3709C22.6769 1.57226 18.8811 0 14.9232 0ZM8.10175 19.5436C8.08985 19.8688 7.95233 20.1766 7.7181 20.4025C7.48387 20.6283 7.17119 20.7545 6.84583 20.7545C6.52047 20.7545 6.20779 20.6283 5.97356 20.4025C5.73933 20.1766 5.6018 19.8688 5.58991 19.5436V10.3028C5.6018 9.97761 5.73933 9.66976 5.97356 9.44394C6.20779 9.21812 6.52047 9.09194 6.84583 9.09194C7.17119 9.09194 7.48387 9.21812 7.7181 9.44394C7.95233 9.66976 8.08985 9.97761 8.10175 10.3028V19.5436ZM13.4783 19.5436C13.4783 19.8779 13.3455 20.1984 13.1092 20.4347C12.8729 20.671 12.5524 20.8038 12.2181 20.8038C11.8839 20.8038 11.5634 20.671 11.3271 20.4347C11.0908 20.1984 10.958 19.8779 10.958 19.5436V10.3028C10.958 9.96855 11.0908 9.64803 11.3271 9.41171C11.5634 9.1754 11.8839 9.04263 12.2181 9.04263C12.5524 9.04263 12.8729 9.1754 13.1092 9.41171C13.3455 9.64803 13.4783 9.96855 13.4783 10.3028V19.5436ZM18.8548 19.5436C18.8548 19.8779 18.722 20.1984 18.4857 20.4347C18.2494 20.671 17.9289 20.8038 17.5947 20.8038C17.2605 20.8038 16.9399 20.671 16.7036 20.4347C16.4673 20.1984 16.3345 19.8779 16.3345 19.5436V10.3028C16.3345 9.96855 16.4673 9.64803 16.7036 9.41171C16.9399 9.1754 17.2605 9.04263 17.5947 9.04263C17.9289 9.04263 18.2494 9.1754 18.4857 9.41171C18.722 9.64803 18.8548 9.96855 18.8548 10.3028V19.5436ZM24.2683 19.5436C24.2683 19.8779 24.1355 20.1984 23.8992 20.4347C23.6629 20.671 23.3424 20.8038 23.0082 20.8038C22.6739 20.8038 22.3534 20.671 22.1171 20.4347C21.8808 20.1984 21.748 19.8779 21.748 19.5436V10.3028C21.748 9.96855 21.8808 9.64803 22.1171 9.41171C22.3534 9.1754 22.6739 9.04263 23.0082 9.04263C23.3424 9.04263 23.6629 9.1754 23.8992 9.41171C24.1355 9.64803 24.2683 9.96855 24.2683 10.3028V19.5436Z" fill="#0059F1"/><path fill-rule="evenodd" clip-rule="evenodd" d="M130.38 12.4852H128.854C128.855 12.4368 128.851 12.3884 128.843 12.3407C128.834 12.2851 128.83 12.2289 128.831 12.1727C128.828 11.7774 128.869 11.383 128.952 10.9966C129.04 10.6115 129.161 10.2348 129.315 9.87087H134.204L132.001 22.383C131.425 22.4774 130.843 22.5263 130.259 22.5292C129.715 22.5254 129.173 22.4765 128.638 22.383L130.38 12.4852ZM131.082 7.76562C131.064 7.22684 131.1 6.68753 131.19 6.15603C131.289 5.60938 131.431 5.07124 131.613 4.54643C131.917 4.48105 132.224 4.4367 132.534 4.4137C132.857 4.39018 133.147 4.37842 133.404 4.37842C133.661 4.37842 133.949 4.39018 134.265 4.4137C134.561 4.436 134.856 4.48037 135.147 4.54643C135.149 5.09021 135.101 5.63303 135.002 6.16779C134.898 6.71072 134.753 7.2449 134.567 7.76562C134.267 7.81512 133.964 7.84765 133.66 7.86307C133.344 7.8782 133.058 7.8866 132.799 7.8866C132.541 7.8866 132.275 7.8866 131.959 7.86307C131.663 7.8506 131.369 7.81804 131.077 7.76562H131.082ZM95.228 12.4852H97.2442L95.5489 21.9395C95.4544 22.5698 95.2968 23.1889 95.0784 23.7877C94.9316 24.1872 94.7186 24.5593 94.4484 24.8882C94.2477 25.1323 93.9838 25.3165 93.6856 25.4208C93.4043 25.5107 93.1105 25.5555 92.8152 25.5535C92.6402 25.5485 92.4659 25.5282 92.2944 25.493C92.0928 25.457 91.8945 25.4048 91.7013 25.3368C91.2418 26.1364 90.969 27.0295 90.9032 27.9494C91.6161 28.1728 92.3589 28.2861 93.1059 28.2855C93.7775 28.2911 94.4462 28.1971 95.0902 28.0066C95.7076 27.8192 96.2714 27.4874 96.7351 27.0388C97.2694 26.5064 97.7006 25.8798 98.007 25.1906C98.4177 24.2553 98.7062 23.2711 98.8655 22.2621L100.608 12.4852H103.251C103.413 12.0581 103.535 11.6165 103.614 11.1663C103.681 10.7378 103.713 10.3046 103.711 9.8709H101.073L101.12 9.65415C101.195 9.23172 101.313 8.81797 101.471 8.41924C101.581 8.13953 101.745 7.8847 101.955 7.66988C102.133 7.49739 102.349 7.36856 102.585 7.29353C102.841 7.21851 103.106 7.18226 103.372 7.186C103.597 7.18529 103.822 7.20498 104.044 7.2448C104.254 7.28681 104.464 7.33889 104.674 7.40274C104.894 6.99905 105.08 6.57819 105.232 6.1443C105.39 5.67669 105.52 5.19974 105.62 4.71616C105.259 4.60606 104.891 4.52515 104.518 4.47421C104.104 4.42272 103.688 4.39858 103.271 4.40197C101.754 4.39973 100.536 4.82705 99.6165 5.68393C98.6969 6.54081 98.0758 7.87206 97.7532 9.67768L97.7045 9.8709H95.6883C95.5206 10.3009 95.399 10.7476 95.3254 11.2033C95.2598 11.6274 95.2272 12.056 95.228 12.4852ZM61.6195 9.38701C61.9108 7.69341 62.0558 6.41088 62.0547 5.53944C62.0547 5.36134 62.0547 5.21349 62.0429 5.09084C62.0387 5.04684 62.0349 5.00176 62.031 4.95536L62.031 4.95522C62.0241 4.87233 62.0167 4.78524 62.006 4.69264C62.3185 4.63926 62.6337 4.6028 62.9502 4.58343C63.3047 4.5599 63.6122 4.54646 63.8709 4.54646C64.3905 4.55133 64.9087 4.60023 65.4201 4.69264C65.5071 4.99098 65.5473 5.30101 65.5393 5.61169C65.5226 6.48176 65.4258 7.34845 65.2504 8.20082L64.6455 11.5611C64.8455 11.3114 65.0592 11.073 65.2856 10.8471C65.5313 10.6034 65.8035 10.3881 66.0972 10.2052C66.4282 10.0012 66.787 9.84618 67.1624 9.74488C67.6203 9.62566 68.0922 9.56914 68.5653 9.57687C69.6944 9.57687 70.5619 9.96387 71.1679 10.7379C71.7739 11.5119 72.0774 12.637 72.0785 14.1133C72.0748 15.1369 71.9278 16.1548 71.6417 17.1376C71.3541 18.1502 70.8554 19.0904 70.1783 19.8964C69.4343 20.7655 68.5031 21.4548 67.4547 21.9126C66.3257 22.4279 64.93 22.6861 63.2678 22.6872C61.9445 22.701 60.6315 22.4543 59.4034 21.9613L61.6195 9.38701ZM63.2174 19.673C63.3778 19.7284 63.5441 19.7651 63.713 19.7822C63.9177 19.8065 64.1236 19.8188 64.3296 19.8191C64.9753 19.8349 65.6113 19.6595 66.1577 19.3151C66.6615 18.9894 67.0904 18.5605 67.4161 18.0566C67.7505 17.5412 67.9958 16.9733 68.1419 16.3765C68.2916 15.7911 68.3689 15.1896 68.3721 14.5854C68.3851 14.0753 68.264 13.5707 68.021 13.122C67.7868 12.7109 67.3875 12.5048 66.823 12.5037C66.0804 12.5037 65.443 12.8185 64.911 13.448C64.3789 14.0775 63.9919 15.118 63.75 16.5697L63.2174 19.673ZM43.6147 20.4475C43.5187 20.0823 43.3722 19.7322 43.1795 19.4075C42.7606 19.5855 42.3258 19.7234 41.8808 19.8191C41.5332 19.883 41.1806 19.915 40.8273 19.9149C40.1931 19.9362 39.5758 19.7089 39.1068 19.2815C38.6588 18.8614 38.4348 18.2079 38.4348 17.3207C38.432 16.6924 38.5093 16.0662 38.6649 15.4574C38.8032 14.8929 39.0398 14.3571 39.3639 13.8747C39.6705 13.423 40.0719 13.0434 40.54 12.7625C41.0392 12.4719 41.6091 12.3254 42.1866 12.3391C42.573 12.3356 42.9585 12.3762 43.3358 12.46C43.6947 12.5441 44.0464 12.6565 44.3876 12.7961C44.6576 12.3736 44.8616 11.9124 44.9924 11.4284C45.1165 10.9902 45.1898 10.5392 45.2108 10.0843C44.7335 9.90404 44.2385 9.77451 43.734 9.69784C43.2059 9.61627 42.6722 9.57583 42.1378 9.57686C41.0567 9.55254 39.987 9.80163 39.0278 10.301C38.1544 10.7666 37.3845 11.4045 36.7647 12.1761C36.1484 12.9481 35.6771 13.8252 35.3735 14.7652C35.0649 15.6901 34.9056 16.6582 34.9014 17.6332C34.9002 19.2014 35.3276 20.4335 36.1833 21.3296C37.0391 22.2257 38.3866 22.6737 40.2258 22.6737C40.866 22.6776 41.5055 22.6292 42.1378 22.5292C42.7039 22.4362 43.2564 22.2737 43.7827 22.0453C43.798 21.5076 43.7415 20.9703 43.6147 20.4475ZM47.1589 21.3749C47.9419 22.2464 49.1639 22.6821 50.8251 22.6821C51.9093 22.7059 52.9823 22.4588 53.9468 21.963C54.8101 21.5078 55.5623 20.8675 56.1495 20.0879C56.7351 19.3018 57.1734 18.416 57.4432 17.4736C57.7279 16.5125 57.8733 15.5155 57.875 14.5132C57.875 12.9965 57.483 11.7947 56.6989 10.9075C55.9148 10.0204 54.6827 9.57685 53.0025 9.57685C51.9238 9.55451 50.8578 9.81334 49.9094 10.3279C49.0532 10.8021 48.3085 11.454 47.7252 12.2399C47.1376 13.0354 46.695 13.9284 46.418 14.8778C46.132 15.8237 45.9854 16.8063 45.9828 17.7945C45.984 19.31 46.376 20.5035 47.1589 21.3749ZM52.6884 19.4881C52.2669 19.8752 51.7113 20.0831 51.1392 20.0678V20.0594C49.9934 20.0594 49.4204 19.3448 49.4204 17.9155C49.4269 17.3392 49.4797 16.7645 49.5784 16.1967C49.6793 15.5624 49.8623 14.944 50.1227 14.3569C50.3599 13.8081 50.6965 13.308 51.1157 12.8817C51.3147 12.6817 51.5526 12.5246 51.8147 12.4202C52.0768 12.3159 52.3576 12.2665 52.6396 12.2752C53.8493 12.2752 54.4542 13.0178 54.4542 14.5031C54.4484 15.0832 54.3922 15.6616 54.2862 16.232C54.1761 16.8596 53.9846 17.4701 53.7166 18.0482C53.4722 18.5913 53.1227 19.0807 52.6884 19.4881ZM75.1666 12.5457C75.0781 13.3276 74.9448 14.227 74.7667 15.2441L73.4629 22.3881C74.0142 22.4859 74.573 22.5348 75.133 22.5343C75.7244 22.5308 76.3148 22.4819 76.8988 22.3881L77.7943 17.5156C77.9231 16.8066 78.0682 16.1614 78.2295 15.5801C78.3674 15.0525 78.588 14.55 78.8831 14.0915C79.1472 13.6884 79.5098 13.3593 79.9365 13.1355C80.4457 12.8929 81.0061 12.7776 81.5697 12.7994C81.7151 12.7974 81.8605 12.8058 82.0048 12.8246C82.1174 12.8397 82.2232 12.8565 82.3207 12.8734C82.535 12.4955 82.6897 12.0869 82.7794 11.662C82.8888 11.2023 82.9452 10.7315 82.9474 10.259V10.0406C82.9471 9.9755 82.9392 9.91066 82.9239 9.84738C82.6415 9.76086 82.3471 9.72003 82.0519 9.72641C81.6435 9.72198 81.2376 9.79143 80.8539 9.93139C80.4992 10.0645 80.1653 10.2478 79.8626 10.4758C79.2849 10.9147 78.803 11.467 78.4462 12.0988C78.4782 11.8888 78.495 11.7124 78.5067 11.5662C78.5185 11.4201 78.5185 11.2756 78.5185 11.1295V11.1293C78.525 10.8624 78.5087 10.5954 78.4698 10.3313C78.4378 10.1532 78.4059 10.0003 78.374 9.8709C78.1035 9.82218 77.8414 9.78689 77.5994 9.76337C77.3583 9.73849 77.116 9.72615 76.8736 9.72641C76.3378 9.72697 75.803 9.77533 75.2758 9.8709C75.2904 10.0037 75.2983 10.1372 75.2993 10.2708V10.7177C75.2875 11.329 75.2432 11.9392 75.1666 12.5457ZM86.3766 17.6416C86.4741 18.4167 86.7323 18.9936 87.1512 19.3722C87.5701 19.7508 88.1834 19.9401 88.991 19.9401C89.5666 19.9493 90.1409 19.8803 90.698 19.7351C91.2288 19.5852 91.75 19.4034 92.2589 19.1907C92.5254 19.5345 92.7037 19.9383 92.778 20.3668C92.8695 20.8492 92.9145 21.3393 92.9125 21.8303C92.6033 21.9717 92.2837 22.0891 91.9564 22.1814C91.5935 22.2856 91.2172 22.3746 90.8307 22.4469C90.4443 22.5191 90.0562 22.5763 89.6681 22.6149C89.3227 22.6529 88.9755 22.6731 88.628 22.6754C87.7737 22.6935 86.9223 22.5709 86.1078 22.3125C85.4584 22.1022 84.8635 21.7511 84.3655 21.2842C83.8951 20.8338 83.5416 20.2756 83.3355 19.6578C83.1098 18.9746 82.9991 18.2586 83.0079 17.5391C83.0075 16.5496 83.178 15.5673 83.5119 14.6358C83.8373 13.7062 84.3248 12.8415 84.9518 12.082C85.5782 11.328 86.3524 10.7104 87.2268 10.2674C88.1638 9.79647 89.2009 9.55953 90.2494 9.57684C90.7518 9.57447 91.2521 9.64118 91.7363 9.7751C92.171 9.89143 92.5782 10.093 92.9343 10.3682C93.2705 10.6306 93.5433 10.9654 93.7324 11.3477C93.934 11.7707 94.0335 12.2351 94.023 12.7036C94.0404 13.368 93.8654 14.0232 93.519 14.5904C93.1688 15.1339 92.7065 15.5962 92.1631 15.9463C91.5652 16.3333 90.9182 16.6385 90.2393 16.8536C89.5089 17.0904 88.7596 17.2647 87.9997 17.3745L86.3766 17.6416ZM87.756 15.1735C88.2686 15.102 88.7721 14.9764 89.2581 14.7988C89.5881 14.678 89.8979 14.5081 90.1771 14.2947C90.3587 14.1634 90.5062 13.9906 90.6073 13.7907C90.7084 13.5908 90.7603 13.3695 90.7585 13.1455C90.7633 13.006 90.7388 12.867 90.6864 12.7376C90.634 12.6082 90.5549 12.4913 90.4544 12.3945C90.3458 12.2938 90.2183 12.2156 90.0793 12.1646C89.9403 12.1135 89.7925 12.0906 89.6445 12.0971C89.2443 12.0923 88.8493 12.1876 88.4953 12.3743C88.1484 12.5598 87.8404 12.8102 87.588 13.1119C87.3193 13.4325 87.0934 13.7866 86.916 14.1654C86.7353 14.5496 86.5934 14.9509 86.4925 15.3633L87.756 15.1735ZM114.449 16.9695C114.271 17.9776 114.143 18.8737 114.063 19.6578C113.983 20.4419 113.943 21.0506 113.942 21.4841V21.9327C113.942 22.0664 113.95 22.1999 113.966 22.3326C113.447 22.4274 112.92 22.4758 112.393 22.4771C111.89 22.472 111.388 22.4237 110.893 22.3326C110.859 22.2032 110.827 22.0503 110.795 21.8722C110.757 21.608 110.741 21.3411 110.746 21.0742V20.6138C110.749 20.4269 110.765 20.2405 110.795 20.056C110.332 20.7938 109.722 21.4286 109.004 21.921C108.257 22.4318 107.369 22.6978 106.464 22.6821C105.398 22.6821 104.6 22.3461 104.068 21.674C103.536 21.0019 103.269 20.1058 103.268 18.9857C103.263 17.7882 103.447 16.5973 103.814 15.4574C104.157 14.3626 104.708 13.3439 105.435 12.4566C106.166 11.5751 107.078 10.8611 108.108 10.3631C109.178 9.83893 110.42 9.57682 111.835 9.57682C112.5 9.57285 113.164 9.62117 113.821 9.72131C114.434 9.81759 115.041 9.95512 115.636 10.133L114.449 16.9695ZM111.958 12.4617C111.818 12.4298 111.676 12.4095 111.533 12.4012C111.464 12.4012 111.396 12.3977 111.329 12.3943C111.263 12.391 111.198 12.3877 111.134 12.3877C110.432 12.3666 109.741 12.5702 109.162 12.9691C108.621 13.3573 108.163 13.8511 107.818 14.4207C107.463 15.0016 107.202 15.635 107.045 16.2975C106.892 16.8944 106.81 17.5075 106.801 18.1238C106.801 19.3178 107.197 19.9149 107.988 19.9149C108.778 19.9149 109.496 19.4427 110.141 18.4985C110.803 17.5565 111.287 16.2297 111.593 14.5182L111.958 12.4617ZM111.933 4.98326C112.656 4.88022 113.386 4.83136 114.117 4.83708C114.537 4.83708 114.896 4.85052 115.194 4.87405C115.491 4.89757 115.804 4.93453 116.126 4.98326L112.707 7.95882C112.497 7.99243 112.247 8.02435 111.958 8.05627C111.652 8.08927 111.345 8.10554 111.037 8.105C110.509 8.10392 109.983 8.05499 109.464 7.95882L111.933 4.98326ZM125.801 20.4475C125.704 20.0824 125.557 19.7325 125.364 19.4075C124.945 19.5838 124.51 19.7199 124.065 19.8141C123.718 19.8779 123.365 19.9099 123.012 19.9098C122.379 19.9321 121.762 19.7066 121.293 19.2814C120.845 18.8614 120.621 18.2078 120.621 17.3207C120.618 16.6923 120.696 16.0662 120.851 15.4574C120.992 14.8924 121.23 14.3566 121.557 13.8747C121.864 13.4229 122.265 13.0434 122.733 12.7624C123.232 12.4719 123.802 12.3254 124.38 12.339C124.766 12.3356 125.152 12.3762 125.529 12.46C125.888 12.5441 126.239 12.6565 126.581 12.796C126.851 12.3736 127.055 11.9124 127.185 11.4284C127.31 10.9902 127.383 10.5392 127.404 10.0842C126.927 9.904 126.432 9.77448 125.927 9.6978C125.399 9.61624 124.865 9.57579 124.331 9.57683C123.248 9.55401 122.177 9.80543 121.218 10.3077C120.344 10.7733 119.574 11.4111 118.954 12.1828C118.338 12.9525 117.865 13.8273 117.56 14.7652C117.251 15.6901 117.092 16.6582 117.088 17.6332C117.088 19.2014 117.515 20.4335 118.37 21.3296C119.224 22.2257 120.572 22.6737 122.412 22.6737C123.052 22.6775 123.692 22.6292 124.324 22.5292C124.89 22.4362 125.443 22.2736 125.969 22.0453C125.983 21.5076 125.927 20.9704 125.801 20.4475ZM138.131 7.14903C138.058 7.78638 137.933 8.53237 137.756 9.38701L136.158 17.6551C136.11 17.939 136.069 18.1927 136.037 18.4431C136.006 18.6798 135.99 18.9183 135.989 19.1572C135.989 20.3176 136.303 21.1683 136.933 21.7093C137.562 22.2503 138.425 22.5208 139.522 22.5208C139.951 22.5235 140.38 22.4949 140.806 22.4352C141.128 22.3955 141.445 22.3183 141.75 22.205C141.759 22.129 141.766 22.0547 141.772 21.9833C141.776 21.9348 141.78 21.8876 141.785 21.8421C141.797 21.7295 141.797 21.6085 141.797 21.4791C141.798 21.1469 141.77 20.8152 141.713 20.4878C141.66 20.1859 141.592 19.887 141.508 19.5923C141.35 19.6431 141.188 19.6797 141.024 19.7015C140.903 19.7199 140.782 19.7317 140.66 19.7368C140.514 19.7367 140.368 19.7249 140.224 19.7015C140.085 19.6789 139.953 19.6249 139.838 19.5436C139.718 19.4568 139.622 19.3412 139.559 19.2076C139.477 19.0168 139.44 18.81 139.45 18.6027C139.456 18.3771 139.48 18.1524 139.522 17.9306L141.387 8.20082C141.482 7.68445 141.563 7.20896 141.629 6.77436C141.689 6.38959 141.721 6.00104 141.725 5.61169C141.733 5.30088 141.692 4.99069 141.604 4.69264C141.092 4.60007 140.574 4.55117 140.055 4.54646C139.798 4.54646 139.49 4.5599 139.136 4.58343C138.819 4.6027 138.504 4.63916 138.191 4.69264C138.202 4.7853 138.209 4.87243 138.216 4.95536C138.22 5.00176 138.224 5.04684 138.228 5.09084C138.24 5.21349 138.24 5.36134 138.24 5.53944C138.233 6.07756 138.197 6.6149 138.131 7.14903Z" fill="#0059F1"/></svg>